<svg width="52" height="54" viewBox="0 0 52 54" fill="none" xmlns="http://www.w3.org/2000/svg">
<path fill-rule="evenodd" clip-rule="evenodd" d="M22.2439 33.7526L31.5707 24.0828C34.7115 28.0442 35.8446 32.4116 32.317 36.019C30.4188 37.9601 28.9785 37.0256 26.501 39.5942C24.0235 42.1629 26.3602 45.209 22.4183 49.2959C18.4958 53.3627 11.3111 52.5291 6.25168 47.4682C1.37156 42.2214 0.567494 34.7725 4.49004 30.7056C8.43195 26.6187 11.37 29.0415 13.8475 26.4728C16.325 23.9041 15.4237 22.4109 17.2959 20.4429C20.8041 16.7552 25.0576 17.9801 28.9025 21.2988L19.6252 30.9173C18.5274 30.6665 17.3332 30.9836 16.4794 31.8688C15.1489 33.2483 15.1489 35.4848 16.4794 36.8643C17.8099 38.2437 19.9671 38.2437 21.2976 36.8643C22.1141 36.0178 22.4295 34.8485 22.2439 33.7526Z" stroke="black" stroke-width="2.5" stroke-linecap="round" stroke-linejoin="round"/>
<path fill-rule="evenodd" clip-rule="evenodd" d="M44.5978 2.99812C45.1504 2.42522 46.0475 2.42646 46.6032 3.00265L49.2777 5.7755C49.8327 6.3509 49.8323 7.28419 49.2821 7.85468L44.8798 12.4189C44.3272 12.9918 43.4301 12.9906 42.8743 12.4144L40.1999 9.64156C39.6449 9.06616 39.6452 8.13287 40.1955 7.56238L44.5978 2.99812Z" stroke="black" stroke-width="2.5" stroke-linecap="round" stroke-linejoin="round"/>
<path d="M47.9735 11.3569L46.9697 10.3255" stroke="black" stroke-width="2.5" stroke-linecap="round" stroke-linejoin="round"/>
<path d="M49.9999 9.27555L48.9961 8.24415" stroke="black" stroke-width="2.5" stroke-linecap="round" stroke-linejoin="round"/>
<path d="M45.9452 13.4383L44.9414 12.4069" stroke="black" stroke-width="2.5" stroke-linecap="round" stroke-linejoin="round"/>
<path d="M41.9501 5.11278L40.9463 4.08138" stroke="black" stroke-width="2.5" stroke-linecap="round" stroke-linejoin="round"/>
<path d="M43.9774 3.0314L42.9736 2" stroke="black" stroke-width="2.5" stroke-linecap="round" stroke-linejoin="round"/>
<path d="M39.9227 7.19416L38.9189 6.16276" stroke="black" stroke-width="2.5" stroke-linecap="round" stroke-linejoin="round"/>
<path fill-rule="evenodd" clip-rule="evenodd" d="M22.1028 33.7808L42.9503 12.3743L40.2736 9.62576L19.4912 30.9653C20.1188 31.0719 20.7197 31.3727 21.2022 31.8682C21.7234 32.4034 22.0234 33.0804 22.1028 33.7808Z" stroke="black" stroke-width="2.5" stroke-linecap="round" stroke-linejoin="round"/>
<path d="M11.0518 39.1716L14.2535 42.4911" stroke="black" stroke-width="2.5" stroke-linecap="round" stroke-linejoin="round"/>
</svg>
