<svg width="52" height="52" viewBox="0 0 52 52" fill="none" xmlns="http://www.w3.org/2000/svg">
<path d="M26 45.5C33.1797 45.5 39 39.6797 39 32.5C39 25.3203 33.1797 19.5 26 19.5C18.8203 19.5 13 25.3203 13 32.5C13 39.6797 18.8203 45.5 26 45.5Z" stroke="black" stroke-width="2" stroke-miterlimit="10" stroke-linecap="round" stroke-linejoin="round"/>
<path d="M29.25 39C31.0449 39 32.5 37.5449 32.5 35.75C32.5 33.9551 31.0449 32.5 29.25 32.5C27.4551 32.5 26 33.9551 26 35.75C26 37.5449 27.4551 39 29.25 39Z" stroke="black" stroke-width="2" stroke-miterlimit="10" stroke-linecap="round" stroke-linejoin="round"/>
<path d="M14.625 47.125L17.875 43.875" stroke="black" stroke-width="2" stroke-miterlimit="10" stroke-linecap="round" stroke-linejoin="round"/>
<path d="M37.375 47.125L34.125 43.875" stroke="black" stroke-width="2" stroke-miterlimit="10" stroke-linecap="round" stroke-linejoin="round"/>
<path d="M13.8125 19.5C17.8511 19.5 21.125 18.336 21.125 16.9C21.125 15.4641 17.8511 14.3 13.8125 14.3C9.77392 14.3 6.5 15.4641 6.5 16.9C6.5 18.336 9.77392 19.5 13.8125 19.5Z" stroke="black" stroke-width="2" stroke-miterlimit="10" stroke-linecap="round" stroke-linejoin="round"/>
<path d="M21.125 16.9V9.1C21.125 7.6375 17.875 6.5 13.8125 6.5C9.75 6.5 6.5 7.6375 6.5 9.1V17.0625" stroke="black" stroke-width="2" stroke-miterlimit="10" stroke-linecap="round" stroke-linejoin="round"/>
<path d="M39.8125 19.5C43.8511 19.5 47.125 18.336 47.125 16.9C47.125 15.4641 43.8511 14.3 39.8125 14.3C35.7739 14.3 32.5 15.4641 32.5 16.9C32.5 18.336 35.7739 19.5 39.8125 19.5Z" stroke="black" stroke-width="2" stroke-miterlimit="10" stroke-linecap="round" stroke-linejoin="round"/>
<path d="M47.125 16.9V9.1C47.125 7.6375 43.875 6.5 39.8125 6.5C35.75 6.5 32.5 7.6375 32.5 9.1V17.0625" stroke="black" stroke-width="2" stroke-miterlimit="10" stroke-linecap="round" stroke-linejoin="round"/>
</svg>
