<svg width="91" height="90" viewBox="0 0 91 90" fill="none" xmlns="http://www.w3.org/2000/svg">
<path d="M72.9317 57.225L63.4067 56.1375C61.1192 55.875 58.8692 56.6625 57.2567 58.275L50.3567 65.175C39.7442 59.775 31.0442 51.1125 25.6442 40.4625L32.5817 33.525C34.1942 31.9125 34.9817 29.6625 34.7192 27.375L33.6317 17.925C33.1817 14.1375 29.9942 11.2875 26.1692 11.2875H19.6817C15.4442 11.2875 11.9192 14.8125 12.1817 19.05C14.1692 51.075 39.7817 76.65 71.7692 78.6375C76.0067 78.9 79.5317 75.375 79.5317 71.1375V64.65C79.5692 60.8625 76.7192 57.675 72.9317 57.225Z" fill="black"/>
</svg>
