<svg width="83" height="80" viewBox="0 0 83 80" fill="none" xmlns="http://www.w3.org/2000/svg">
<path d="M82.9323 37.6367C81.5323 14.4399 59.8329 -3.43775 34.8395 0.561727C17.6282 3.32137 3.8345 16.8795 1.15811 33.5972C-0.406553 43.2759 1.65229 52.4347 6.1404 59.9938L2.47576 73.232C1.65225 76.2316 4.49326 78.9513 7.54024 78.1114L20.9634 74.5119C27.0574 77.9914 34.1807 79.9911 41.7982 79.9911C65.021 79.9911 84.2911 60.1137 82.9323 37.6367ZM61.9329 54.8744C61.5623 55.5943 61.1094 56.2742 60.5329 56.9142C59.5035 57.994 58.3918 58.7939 57.1565 59.2739C55.9213 59.7938 54.5625 60.0338 53.1214 60.0338C51.0214 60.0338 48.7568 59.5542 46.4098 58.5543C44.0216 57.5545 41.6746 56.2343 39.3276 54.5945C36.9395 52.9147 34.716 51.0349 32.5749 48.9952C30.4338 46.9155 28.5396 44.7158 26.8102 42.4361C25.122 40.1564 23.7633 37.8767 22.7751 35.597C21.7869 33.3172 21.2929 31.1177 21.2929 29.038C21.2929 27.6781 21.5399 26.3583 22.034 25.1585C22.5281 23.9186 23.3105 22.7988 24.4223 21.799C25.7399 20.5191 27.1809 19.9192 28.7044 19.9192C29.2808 19.9192 29.8572 20.0391 30.3925 20.2791C30.9278 20.5191 31.4219 20.879 31.7926 21.399L36.5689 27.9581C36.9395 28.478 37.2277 28.9179 37.3924 29.3579C37.5983 29.7978 37.6806 30.1978 37.6806 30.5977C37.6806 31.0777 37.5159 31.5577 37.2277 32.0374C36.9395 32.5173 36.5689 32.9973 36.0748 33.4772L34.5101 35.077C34.2631 35.317 34.1807 35.557 34.1807 35.8769C34.1807 36.0369 34.2219 36.1969 34.2631 36.3568C34.3454 36.5168 34.3866 36.6368 34.4278 36.7568C34.7984 37.4367 35.4572 38.2766 36.363 39.3165C37.31 40.3563 38.2983 41.4362 39.3688 42.4761C40.4805 43.5559 41.5511 44.5158 42.6628 45.4357C43.7334 46.3155 44.6392 46.9155 45.3392 47.2754C45.4628 47.3154 45.5863 47.3954 45.7098 47.4354C45.8745 47.5154 46.0392 47.5154 46.2451 47.5154C46.6157 47.5154 46.8627 47.3954 47.1098 47.1554L48.6744 45.6356C49.2097 45.1157 49.7038 44.7557 50.1567 44.5158C50.6508 44.2358 51.1038 44.0758 51.639 44.0758C52.0508 44.0758 52.4626 44.1558 52.9155 44.3558C53.3684 44.5558 53.8625 44.7957 54.3566 45.1557L61.1917 49.8751C61.727 50.235 62.0976 50.675 62.3446 51.1549C62.5505 51.6748 62.674 52.1548 62.674 52.7147C62.427 53.3946 62.2623 54.1545 61.9329 54.8744Z" fill="black"/>
</svg>
