<svg width="26" height="25" viewBox="0 0 26 25" fill="none" xmlns="http://www.w3.org/2000/svg">
<path d="M7.95969 0.120361C3.94588 0.120361 0.679688 3.38655 0.679688 7.40036V17.4804C0.679688 21.4942 3.94588 24.7604 7.95969 24.7604H18.0397C22.0535 24.7604 25.3197 21.4942 25.3197 17.4804V7.40036C25.3197 3.38655 22.0535 0.120361 18.0397 0.120361H7.95969ZM7.95969 1.24036H18.0397C21.4481 1.24036 24.1997 3.99193 24.1997 7.40036V17.4804C24.1997 20.8888 21.4481 23.6404 18.0397 23.6404H7.95969C4.55126 23.6404 1.79969 20.8888 1.79969 17.4804V7.40036C1.79969 3.99193 4.55126 1.24036 7.95969 1.24036ZM19.7197 4.60036C19.4226 4.60036 19.1378 4.71836 18.9277 4.9284C18.7177 5.13844 18.5997 5.42332 18.5997 5.72036C18.5997 6.0174 18.7177 6.30228 18.9277 6.51232C19.1378 6.72236 19.4226 6.84036 19.7197 6.84036C20.0167 6.84036 20.3016 6.72236 20.5116 6.51232C20.7217 6.30228 20.8397 6.0174 20.8397 5.72036C20.8397 5.42332 20.7217 5.13844 20.5116 4.9284C20.3016 4.71836 20.0167 4.60036 19.7197 4.60036ZM12.9997 6.28036C9.60425 6.28036 6.83969 9.04492 6.83969 12.4404C6.83969 15.8358 9.60425 18.6004 12.9997 18.6004C16.3951 18.6004 19.1597 15.8358 19.1597 12.4404C19.1597 9.04492 16.3951 6.28036 12.9997 6.28036ZM12.9997 7.40036C15.7898 7.40036 18.0397 9.65021 18.0397 12.4404C18.0397 15.2305 15.7898 17.4804 12.9997 17.4804C10.2095 17.4804 7.95969 15.2305 7.95969 12.4404C7.95969 9.65021 10.2095 7.40036 12.9997 7.40036Z" fill="white"/>
</svg>
