<svg width="93" height="82" viewBox="0 0 93 82" fill="none" xmlns="http://www.w3.org/2000/svg">
<mask id="path-1-inside-1_402_673" fill="white">
<path d="M91.8521 2.86798L92.1839 3.25353C92.5829 3.84669 92.7927 4.57858 92.6833 5.29364C92.4934 6.55755 91.4784 7.65522 90.2286 7.93663C89.5716 8.09623 88.8869 7.96856 88.2603 7.75328C88.0058 7.66188 87.7248 7.58957 87.4572 7.67483C87.1335 7.75276 86.9758 8.07424 86.7746 8.30758C85.203 10.2519 83.6318 12.1967 82.0606 14.1415C81.9063 14.339 81.6473 14.4808 81.3953 14.3993C80.2618 14.0911 79.0397 13.8834 77.8846 14.217C77.4439 14.3475 77.0182 14.5478 76.661 14.841C64.3084 25.7884 51.9539 36.7336 39.6027 47.6827C39.172 48.0903 38.6434 48.4349 38.3953 48.995C38.1436 49.522 38.2264 50.1423 38.4605 50.6578C38.8847 51.5984 39.4887 52.4788 40.3043 53.1214C41.0798 53.734 42.0866 54.0421 43.0745 53.9585C44.3247 53.858 45.4752 53.242 46.4409 52.4692C47.038 51.9921 47.931 52.0795 48.5264 52.5066C48.911 52.7754 49.1834 53.2023 49.2427 53.6699C49.3264 54.2368 49.1354 54.8064 48.8633 55.2991C48.2539 56.3807 47.4794 57.3774 46.5283 58.1811C44.9443 59.5484 42.9651 60.326 40.9985 60.9605C39.8293 61.2875 38.6816 61.7305 37.6518 62.3824C36.2865 63.2299 35.177 64.5 34.5819 65.9969C34.4228 66.4247 34.2129 66.8302 34.0291 67.2477C33.1471 69.2096 32.3776 71.2242 31.3615 73.1242C30.8141 74.1621 30.1869 75.159 29.4735 76.0918C28.836 76.9382 28.0999 77.7034 27.3348 78.4341L26.2997 79.3252C25.9224 79.5643 25.5974 79.8816 25.2051 80.099C24.7011 80.3382 24.1814 80.545 23.6568 80.7357C21.8657 81.3786 19.9117 81.7114 18.0258 81.3451C16.2189 81.0145 14.6092 80.055 13.1483 78.9854C12.814 78.7267 12.449 78.5034 12.1531 78.1982C11.2131 77.2552 10.2759 76.3075 9.40095 75.3033C9.3068 75.1957 9.20479 75.0956 9.10234 74.9959L7.58156 73.2292C7.24166 72.7581 6.83751 72.3385 6.48944 71.8737C5.43516 70.5525 4.43134 69.191 3.4766 67.7961C2.85978 66.8508 2.21937 65.9123 1.73724 64.8887C1.00748 63.0296 0.414842 61.0871 0.296591 59.0804C0.194125 57.4436 0.473187 55.7662 1.21744 54.2927C1.54693 53.6317 1.95866 53.012 2.42774 52.4413C2.72141 52.0682 3.07226 51.7467 3.38668 51.3934L4.3785 50.5396C5.07379 50.0381 5.75805 49.5114 6.52421 49.1203C9.5243 47.4736 12.7652 46.3179 16.0472 45.3825C17.1417 45.0897 18.2096 44.6899 19.2126 44.161C21.345 43.0478 23.1374 41.3102 24.3356 39.2265C24.871 38.2762 25.4002 37.3224 25.9774 36.3971C27.3261 34.2333 28.8772 32.145 30.8968 30.5591C32.3385 29.4173 34.0782 28.5963 35.923 28.4364C36.728 28.32 37.52 28.801 37.9505 29.458C38.1856 29.8231 38.33 30.3204 38.1036 30.7251C37.7206 31.3704 37.1635 31.8853 36.6379 32.4122C35.9632 33.0576 35.2926 33.7378 34.8621 34.5767C34.3057 35.6585 34.2427 36.9402 34.5052 38.1101C34.7498 39.2014 35.4608 40.1588 36.3971 40.7592C36.9419 41.0923 37.71 41.1767 38.2283 40.7412C49.7156 31.1828 61.2007 21.6226 72.6858 12.0624C72.9124 11.8568 73.1989 11.6937 73.333 11.4069C73.518 11.0311 73.4745 10.6003 73.4194 10.2005C73.3487 9.71267 73.5422 9.17773 73.9555 8.8919C74.5052 8.51042 75.1523 8.3157 75.7551 8.03804C75.6768 7.94088 75.6307 7.80318 75.5171 7.7431C75.2949 7.7382 75.0702 7.81284 74.8505 7.75391C74.6866 7.51537 74.622 7.22297 74.5062 6.9596C74.7616 6.58416 75.0982 6.21705 75.5548 6.10433C75.8088 6.04802 76.0844 6.03859 76.3314 6.12662C76.5667 6.32547 76.6781 6.63019 76.7488 6.92263C76.5791 7.08301 76.4124 7.24604 76.2472 7.4108C76.3263 7.50276 76.4055 7.59472 76.485 7.68711C77.046 7.43876 77.617 7.21179 78.1742 6.95467C78.1168 6.85377 78.0577 6.75356 77.9977 6.6541C77.7622 6.64338 77.5145 6.70177 77.2866 6.6378C77.1558 6.4227 77.0433 6.18426 77.0125 5.93196C77.1044 5.69873 77.2911 5.51774 77.4763 5.35606C77.8411 5.03675 78.368 4.95302 78.8295 5.05792C79.0785 5.2517 79.1829 5.56845 79.2669 5.86146C79.1038 6.00937 78.9407 6.15729 78.7754 6.30262C78.8278 6.39505 78.8807 6.48712 78.9347 6.57887C79.5149 6.33273 80.1078 6.1118 80.6749 5.83638C80.629 5.75333 80.5861 5.66846 80.5305 5.59157C80.2909 5.549 80.0444 5.61314 79.8017 5.60028C79.6801 5.3284 79.5096 5.04445 79.5356 4.73722C79.8944 4.16378 80.5946 3.81959 81.268 3.91042C81.3507 3.91363 81.4005 3.98281 81.4482 4.04092C81.6046 4.23481 81.7059 4.46475 81.7947 4.69579C81.6455 4.86333 81.4834 5.01861 81.3346 5.18658C81.2252 5.28299 81.3742 5.393 81.4119 5.48679C81.9688 5.22843 82.5449 5.00991 83.0906 4.72728C83.0515 4.64067 83.012 4.55443 82.9729 4.46782C82.7192 4.48248 82.4669 4.511 82.2134 4.51353C82.1035 4.27285 81.9735 4.03678 81.9136 3.77709C81.9778 3.58959 82.1502 3.46218 82.2866 3.32526C82.6738 2.9574 83.25 2.73728 83.7762 2.87887C83.9917 3.09246 84.1147 3.3782 84.2162 3.65993C84.0421 3.803 83.8747 3.95384 83.7144 4.11289C83.7745 4.20629 83.8354 4.29894 83.8966 4.39202C84.4514 4.13998 85.0228 3.92396 85.5682 3.65141C85.5248 3.57299 85.4814 3.49537 85.4372 3.41769C85.1934 3.44116 84.9302 3.51582 84.6955 3.41574C84.5105 3.22016 84.4517 2.93102 84.4337 2.66913C84.519 2.42814 84.7258 2.24781 84.9079 2.07457C85.2728 1.73787 85.8208 1.63221 86.2881 1.78325C86.5668 1.94319 86.6854 2.28081 86.6902 2.58866C86.5086 2.74575 86.3276 2.9045 86.1539 3.06984C86.2371 3.15604 86.3049 3.37057 86.458 3.27332C86.9867 3.0392 87.5282 2.83313 88.0465 2.57641C88.006 2.50831 87.9651 2.44058 87.9245 2.37248C87.6758 2.34987 87.4199 2.3935 87.1763 2.33485C87.0729 2.1525 87.0069 1.95145 86.9308 1.75694C86.9045 1.66681 86.8433 1.5616 86.9146 1.47617C87.0481 1.25002 87.2286 1.04956 87.4422 0.897242C87.7867 0.653322 88.2353 0.592607 88.6423 0.67451C88.7565 0.683659 88.799 0.800455 88.8576 0.880801C88.9555 1.04454 89.0608 1.208 89.1167 1.39133C89.0123 1.61353 88.8264 1.78486 88.6822 1.9811C88.7309 2.06922 88.7813 2.15584 88.833 2.24296C89.1558 2.13948 89.4893 2.05904 89.8296 2.06081C90.581 2.04162 91.3062 2.36444 91.8521 2.86798Z"/>
</mask>
<path d="M91.8521 2.86798L92.1839 3.25353C92.5829 3.84669 92.7927 4.57858 92.6833 5.29364C92.4934 6.55755 91.4784 7.65522 90.2286 7.93663C89.5716 8.09623 88.8869 7.96856 88.2603 7.75328C88.0058 7.66188 87.7248 7.58957 87.4572 7.67483C87.1335 7.75276 86.9758 8.07424 86.7746 8.30758C85.203 10.2519 83.6318 12.1967 82.0606 14.1415C81.9063 14.339 81.6473 14.4808 81.3953 14.3993C80.2618 14.0911 79.0397 13.8834 77.8846 14.217C77.4439 14.3475 77.0182 14.5478 76.661 14.841C64.3084 25.7884 51.9539 36.7336 39.6027 47.6827C39.172 48.0903 38.6434 48.4349 38.3953 48.995C38.1436 49.522 38.2264 50.1423 38.4605 50.6578C38.8847 51.5984 39.4887 52.4788 40.3043 53.1214C41.0798 53.734 42.0866 54.0421 43.0745 53.9585C44.3247 53.858 45.4752 53.242 46.4409 52.4692C47.038 51.9921 47.931 52.0795 48.5264 52.5066C48.911 52.7754 49.1834 53.2023 49.2427 53.6699C49.3264 54.2368 49.1354 54.8064 48.8633 55.2991C48.2539 56.3807 47.4794 57.3774 46.5283 58.1811C44.9443 59.5484 42.9651 60.326 40.9985 60.9605C39.8293 61.2875 38.6816 61.7305 37.6518 62.3824C36.2865 63.2299 35.177 64.5 34.5819 65.9969C34.4228 66.4247 34.2129 66.8302 34.0291 67.2477C33.1471 69.2096 32.3776 71.2242 31.3615 73.1242C30.8141 74.1621 30.1869 75.159 29.4735 76.0918C28.836 76.9382 28.0999 77.7034 27.3348 78.4341L26.2997 79.3252C25.9224 79.5643 25.5974 79.8816 25.2051 80.099C24.7011 80.3382 24.1814 80.545 23.6568 80.7357C21.8657 81.3786 19.9117 81.7114 18.0258 81.3451C16.2189 81.0145 14.6092 80.055 13.1483 78.9854C12.814 78.7267 12.449 78.5034 12.1531 78.1982C11.2131 77.2552 10.2759 76.3075 9.40095 75.3033C9.3068 75.1957 9.20479 75.0956 9.10234 74.9959L7.58156 73.2292C7.24166 72.7581 6.83751 72.3385 6.48944 71.8737C5.43516 70.5525 4.43134 69.191 3.4766 67.7961C2.85978 66.8508 2.21937 65.9123 1.73724 64.8887C1.00748 63.0296 0.414842 61.0871 0.296591 59.0804C0.194125 57.4436 0.473187 55.7662 1.21744 54.2927C1.54693 53.6317 1.95866 53.012 2.42774 52.4413C2.72141 52.0682 3.07226 51.7467 3.38668 51.3934L4.3785 50.5396C5.07379 50.0381 5.75805 49.5114 6.52421 49.1203C9.5243 47.4736 12.7652 46.3179 16.0472 45.3825C17.1417 45.0897 18.2096 44.6899 19.2126 44.161C21.345 43.0478 23.1374 41.3102 24.3356 39.2265C24.871 38.2762 25.4002 37.3224 25.9774 36.3971C27.3261 34.2333 28.8772 32.145 30.8968 30.5591C32.3385 29.4173 34.0782 28.5963 35.923 28.4364C36.728 28.32 37.52 28.801 37.9505 29.458C38.1856 29.8231 38.33 30.3204 38.1036 30.7251C37.7206 31.3704 37.1635 31.8853 36.6379 32.4122C35.9632 33.0576 35.2926 33.7378 34.8621 34.5767C34.3057 35.6585 34.2427 36.9402 34.5052 38.1101C34.7498 39.2014 35.4608 40.1588 36.3971 40.7592C36.9419 41.0923 37.71 41.1767 38.2283 40.7412C49.7156 31.1828 61.2007 21.6226 72.6858 12.0624C72.9124 11.8568 73.1989 11.6937 73.333 11.4069C73.518 11.0311 73.4745 10.6003 73.4194 10.2005C73.3487 9.71267 73.5422 9.17773 73.9555 8.8919C74.5052 8.51042 75.1523 8.3157 75.7551 8.03804C75.6768 7.94088 75.6307 7.80318 75.5171 7.7431C75.2949 7.7382 75.0702 7.81284 74.8505 7.75391C74.6866 7.51537 74.622 7.22297 74.5062 6.9596C74.7616 6.58416 75.0982 6.21705 75.5548 6.10433C75.8088 6.04802 76.0844 6.03859 76.3314 6.12662C76.5667 6.32547 76.6781 6.63019 76.7488 6.92263C76.5791 7.08301 76.4124 7.24604 76.2472 7.4108C76.3263 7.50276 76.4055 7.59472 76.485 7.68711C77.046 7.43876 77.617 7.21179 78.1742 6.95467C78.1168 6.85377 78.0577 6.75356 77.9977 6.6541C77.7622 6.64338 77.5145 6.70177 77.2866 6.6378C77.1558 6.4227 77.0433 6.18426 77.0125 5.93196C77.1044 5.69873 77.2911 5.51774 77.4763 5.35606C77.8411 5.03675 78.368 4.95302 78.8295 5.05792C79.0785 5.2517 79.1829 5.56845 79.2669 5.86146C79.1038 6.00937 78.9407 6.15729 78.7754 6.30262C78.8278 6.39505 78.8807 6.48712 78.9347 6.57887C79.5149 6.33273 80.1078 6.1118 80.6749 5.83638C80.629 5.75333 80.5861 5.66846 80.5305 5.59157C80.2909 5.549 80.0444 5.61314 79.8017 5.60028C79.6801 5.3284 79.5096 5.04445 79.5356 4.73722C79.8944 4.16378 80.5946 3.81959 81.268 3.91042C81.3507 3.91363 81.4005 3.98281 81.4482 4.04092C81.6046 4.23481 81.7059 4.46475 81.7947 4.69579C81.6455 4.86333 81.4834 5.01861 81.3346 5.18658C81.2252 5.28299 81.3742 5.393 81.4119 5.48679C81.9688 5.22843 82.5449 5.00991 83.0906 4.72728C83.0515 4.64067 83.012 4.55443 82.9729 4.46782C82.7192 4.48248 82.4669 4.511 82.2134 4.51353C82.1035 4.27285 81.9735 4.03678 81.9136 3.77709C81.9778 3.58959 82.1502 3.46218 82.2866 3.32526C82.6738 2.9574 83.25 2.73728 83.7762 2.87887C83.9917 3.09246 84.1147 3.3782 84.2162 3.65993C84.0421 3.803 83.8747 3.95384 83.7144 4.11289C83.7745 4.20629 83.8354 4.29894 83.8966 4.39202C84.4514 4.13998 85.0228 3.92396 85.5682 3.65141C85.5248 3.57299 85.4814 3.49537 85.4372 3.41769C85.1934 3.44116 84.9302 3.51582 84.6955 3.41574C84.5105 3.22016 84.4517 2.93102 84.4337 2.66913C84.519 2.42814 84.7258 2.24781 84.9079 2.07457C85.2728 1.73787 85.8208 1.63221 86.2881 1.78325C86.5668 1.94319 86.6854 2.28081 86.6902 2.58866C86.5086 2.74575 86.3276 2.9045 86.1539 3.06984C86.2371 3.15604 86.3049 3.37057 86.458 3.27332C86.9867 3.0392 87.5282 2.83313 88.0465 2.57641C88.006 2.50831 87.9651 2.44058 87.9245 2.37248C87.6758 2.34987 87.4199 2.3935 87.1763 2.33485C87.0729 2.1525 87.0069 1.95145 86.9308 1.75694C86.9045 1.66681 86.8433 1.5616 86.9146 1.47617C87.0481 1.25002 87.2286 1.04956 87.4422 0.897242C87.7867 0.653322 88.2353 0.592607 88.6423 0.67451C88.7565 0.683659 88.799 0.800455 88.8576 0.880801C88.9555 1.04454 89.0608 1.208 89.1167 1.39133C89.0123 1.61353 88.8264 1.78486 88.6822 1.9811C88.7309 2.06922 88.7813 2.15584 88.833 2.24296C89.1558 2.13948 89.4893 2.05904 89.8296 2.06081C90.581 2.04162 91.3062 2.36444 91.8521 2.86798Z" stroke="white" stroke-width="10" mask="url(#path-1-inside-1_402_673)"/>
</svg>
