<svg width="76" height="58" viewBox="0 0 76 58" fill="none" xmlns="http://www.w3.org/2000/svg">
<path d="M56 15.5002C52.5 -3.49977 22 0 20.4999 15.5002C-9.90005 23.5002 5.83323 45.5001 16.9999 55.5001H57.9999C86.3999 31.9001 69.3333 19.0001 56 15.5002Z" stroke="white" stroke-width="4" stroke-linecap="round"/>
<path d="M17.5 35V55H26H58.5V35H17.5Z" stroke="white" stroke-width="4" stroke-linecap="round"/>
<rect x="24" y="36" width="6" height="11" fill="white"/>
<rect width="4" height="7" transform="matrix(1 0 0 -1 25 54)" fill="white"/>
<rect width="4" height="7" transform="matrix(1 0 0 -1 36 54)" fill="white"/>
<rect width="4" height="7" transform="matrix(1 0 0 -1 47 54)" fill="white"/>
<rect x="35" y="36" width="6" height="11" fill="white"/>
<rect x="46" y="36" width="6" height="11" fill="white"/>
<path d="M47.7445 20.9565L45.9502 19.9203C46.1313 18.9431 46.1313 17.9406 45.9502 16.9634L47.7445 15.9272C47.9509 15.8093 48.0436 15.565 47.9762 15.3375C47.5087 13.838 46.7126 12.4817 45.6722 11.3529C45.5121 11.1802 45.251 11.1381 45.0488 11.256L43.2544 12.2922C42.5005 11.6435 41.6328 11.1423 40.6935 10.8137V8.74558C40.6935 8.50971 40.5292 8.30331 40.2975 8.25277C38.7517 7.90737 37.1679 7.92422 35.6979 8.25277C35.4662 8.30331 35.302 8.50971 35.302 8.74558V10.8179C34.3669 11.1507 33.4992 11.6519 32.741 12.2964L30.9508 11.2602C30.7445 11.1423 30.4875 11.1802 30.3275 11.3571C29.2871 12.4817 28.491 13.838 28.0234 15.3418C27.9518 15.5692 28.0487 15.8135 28.2551 15.9314L30.0495 16.9676C29.8683 17.9448 29.8683 18.9473 30.0495 19.9245L28.2551 20.9607C28.0487 21.0787 27.956 21.323 28.0234 21.5504C28.491 23.0499 29.2871 24.4062 30.3275 25.5351C30.4875 25.7078 30.7487 25.7499 30.9508 25.6319L32.7452 24.5958C33.4992 25.2444 34.3669 25.7457 35.3062 26.0742V28.1466C35.3062 28.3825 35.4704 28.5889 35.7021 28.6394C37.248 28.9848 38.8317 28.9679 40.3017 28.6394C40.5334 28.5889 40.6977 28.3825 40.6977 28.1466V26.0742C41.6328 25.7415 42.5005 25.2402 43.2586 24.5958L45.053 25.6319C45.2594 25.7499 45.5163 25.712 45.6764 25.5351C46.7168 24.4104 47.5129 23.0541 47.9804 21.5504C48.0436 21.3187 47.9509 21.0744 47.7445 20.9565ZM37.9977 21.8116C36.1402 21.8116 34.628 20.2994 34.628 18.4419C34.628 16.5843 36.1402 15.0722 37.9977 15.0722C39.8553 15.0722 41.3674 16.5843 41.3674 18.4419C41.3674 20.2994 39.8553 21.8116 37.9977 21.8116Z" fill="white"/>
</svg>
